# AST/ASF file generated using VICON BodyLanguage
# -----------------------------------------------
:version 1.10
:name VICON
:units
  mass 1.0
  length 0.45
  angle deg
:documentation
   .ast/.asf automatically generated from VICON data using
   VICON BodyBuilder and BodyLanguage model FoxedUp or BRILLIANT.MOD
:root
   order TX TY TZ RX RY RZ
   axis XYZ
   position 0 0 0  
   orientation 0 0 0 
:bonedata
  begin
     id 1 
     name lhipjoint
     direction 0.700308 -0.549349 0.455834 
     length 2.59063 
     axis 0 0 0  XYZ
  end
  begin
     id 2 
     name lfemur
     direction 0.34202 -0.939693 0  
     length 6.31066  
     axis 0 0 20  XYZ
    dof rx ry rz
    limits (-160.0 20.0)
           (-70.0 70.0)
           (-60.0 70.0)
  end
  begin
     id 3 
     name ltibia
     direction 0.34202 -0.939693 0   
     length 7.36093   
     axis 0 0 20   XYZ
    dof rx
    limits (-10.0 170.0)
  end
  begin
     id 4 
     name lfoot
     direction 0.0905332 -0.248738 0.96433   
     length 2.0233   
     axis -90 7.62852e-016 20   XYZ
    dof rx rz
    limits (-45.0 90.0)
           (-70.0 20.0)
  end
  begin
     id 5 
     name ltoes
     direction 1.53573e-011 -4.21855e-011 1   
     length 1.01524   
     axis -90 7.62852e-016 20   XYZ
    dof rx
    limits (-90.0 20.0)
  end
  begin
     id 6 
     name rhipjoint
     direction -0.61416 -0.607328 0.503944   
     length 2.34332  
     axis 0 0 0  XYZ 
  end
  begin
     id 7 
     name rfemur
     direction -0.34202 -0.939693 0   
     length 6.58548   
     axis 0 0 -20   XYZ
    dof rx ry rz
    limits (-160.0 20.0)
           (-70.0 70.0)
           (-70.0 60.0)
  end
  begin
     id 8 
     name rtibia
     direction -0.34202 -0.939693 0   
     length 7.20707   
     axis 0 0 -20   XYZ
    dof rx
    limits (-10.0 170.0)
 end
 begin
     id 9 
     name rfoot
     direction -0.136772 -0.375778 0.916561   
     length 1.92184  
     axis -90 -7.62852e-016 -20   XYZ
    dof rx rz
    limits (-45.0 90.0)
           (-20.0 70.0)
  end
  begin
     id 10 
     name rtoes
     direction -1.53535e-011 -4.21828e-011 1   
     length 0.951089   
     axis -90 -7.62852e-016 -20   XYZ
    dof rx
    limits (-90.0 20.0)
  end
  begin
     id 11 
     name lowerback
     direction -0.0444974 0.988086 -0.147332   
     length 1.9609   
     axis 0 0 0   XYZ
    dof rx ry rz
    limits (-20.0 45.0)
           (-30.0 30.0)
           (-30.0 30.0)
  end
  begin
     id 12 
     name upperback
     direction 0.00613146 0.999513 0.0306081   
     length 1.94944   
     axis 0 0 0   XYZ
    dof rx ry rz
    limits (-20.0 45.0)
           (-30.0 30.0)
           (-30.0 30.0)
  end
  begin
     id 13 
     name thorax
     direction 0.0254621 0.994518 0.101418   
     length 2.0119   
     axis 0 0 0   XYZ
    dof rx ry rz
    limits (-20.0 45.0)
           (-30.0 30.0)
           (-30.0 30.0)
  end
  begin
     id 14 
     name lowerneck
     direction 0.0168698 0.977854 0.208608   
     length 1.6375   
     axis 0 0 0   XYZ
    dof rx ry rz
    limits (-20.0 45.0)
           (-30.0 30.0)
           (-30.0 30.0)
  end
  begin
     id 15 
     name upperneck
     direction -0.0283988 0.989338 -0.142843   
     length 1.6851   
     axis 0 0 0   XYZ
    dof rx ry rz
    limits (-20.0 45.0)
           (-30.0 30.0)
           (-30.0 30.0)
  end
  begin
     id 16
     name head
     direction -0.0129422 0.99741 -0.0707489  
     length 1.69029  
     axis 0 0 0   XYZ
    dof rx ry rz
    limits (-20.0 45.0)
           (-30.0 30.0)
           (-30.0 30.0)
  end
  begin
     id 17 
     name lclavicle
     direction 0.820295 0.564628 -0.0911715  
     length 3.16484  
     axis 0 0 0   XYZ
    dof ry rz
    limits (-20.0 10.0)
           (0.0 20.0)
  end
  begin
     id 18 
     name lhumerus
     direction 1 -4.48969e-011 1.00186e-027   
     length 5.17853   
     axis 180 -30 -90   XYZ
    dof rx ry rz
    limits (-60.0 90.0)
           (-90.0 90.0)
           (-90.0 90.0)
  end
  begin
     id 19
     name lradius
     direction 1 -4.48966e-011 -1.52922e-027   
     length 3.40399   
     axis 180 -30 -90   XYZ
    dof rx
    limits (-10.0 170.0)
  end
  begin
     id 20
     name lwrist
     direction 1 -4.48981e-011 -3.80893e-027   
     length 1.70199   
     axis 1.1049e-015 90 90   XYZ
    dof ry
    limits (-180.0 0.0)
 end
  begin
     id 21 
     name lhand
     direction 1 -4.48957e-011 -7.61786e-027   
     length 0.708964   
     axis 4.86085e-015 90 90   XYZ
    dof rx rz
    limits (-90.0 90.0)
           (-45.0 45.0)
  end
  begin
     id 22 
     name lfingers
     direction 1 -4.48929e-011 -1.52357e-026   
     length 0.571585   
     axis 9.7217e-015 90 90   XYZ
    dof rx
    limits (0.0 90.0)
  end
  begin
     id 23
     name lthumb
     direction 0.707107 -6.34905e-011 0.707107   
     length 0.820685   
     axis -90 45 2.85299e-015   XYZ
    dof rx rz
    limits (-45.0 45.0)
           (-45.0 45.0)
  end
  begin
     id 24 
     name rclavicle
     direction -0.858602 0.463947 -0.218075   
     length 3.35137  
     axis 0 0 0   XYZ 
    dof ry rz
    limits (-10.0 20.0)
           (-20.0 0.0)
  end
  begin
     id 25 
     name rhumerus
     direction -1 -4.48969e-011 -1.98511e-027  
     length 5.42351   
     axis 180 30 90   XYZ
    dof rx ry rz
    limits (-90.0 60.0)
           (-90.0 90.0)
           (-90.0 90.0)
  end
  begin
     id 26 
     name rradius
     direction -1 -4.48961e-011 -2.82624e-027   
     length 3.42066   
     axis 180 30 90   XYZ
    dof rx
    limits (-10.0 170.0)
  end
  begin
     id 27 
     name rwrist
     direction -1 -4.48966e-011 -3.80893e-027   
     length 1.71033   
     axis 1.1049e-015 -90 -90   XYZ
    dof ry
    limits (-180.0 0.0)
  end
  begin
     id 28
     name rhand
     direction -1 -4.48964e-011 -7.61786e-027   
     length 0.743608   
     axis 4.86085e-015 -90 -90   XYZ
    dof rx rz
    limits (-90.0 90.0)
           (-45.0 45.0)
  end
  begin
     id 29
     name rfingers
     direction -1 -4.48961e-011 -1.52357e-026   
     length 0.599516   
     axis 9.7217e-015 -90 -90   XYZ
    dof rx
    limits (0.0 90.0)
  end
  begin
     id 30
     name rthumb
     direction -0.707107 -6.34913e-011 0.707107   
     length 0.860789   
     axis -90 -45 -2.85299e-015   XYZ
    dof rx rz
    limits (-45.0 45.0)
           (-45.0 45.0)
  end
:hierarchy
  begin
    root lhipjoint rhipjoint lowerback
    lhipjoint lfemur
    lfemur ltibia
    ltibia lfoot
    lfoot ltoes
    rhipjoint rfemur
    rfemur rtibia
    rtibia rfoot
    rfoot rtoes
    lowerback upperback
    upperback thorax
    thorax lowerneck lclavicle rclavicle
    lowerneck upperneck
    upperneck head
    lclavicle lhumerus
    lhumerus lradius
    lradius lwrist
    lwrist lhand lthumb
    lhand lfingers
    rclavicle rhumerus
    rhumerus rradius
    rradius rwrist
    rwrist rhand rthumb
    rhand rfingers
  end

#!OML:ASF E:\mmandel\Project 1\Capture day 1\Session 2\Subject.ASF
:FULLY-SPECIFIED
:DEGREES
113
root -4.94453 1.60243 -1.42955 -20.728 81.7202 81.1045
lowerback 18.8139 0.861762 3.39853
upperback 3.70833 2.42095 4.70417
thorax -6.60526 1.28103 2.52406
lowerneck -20.6898 -4.2173 -9.373
upperneck 33.4389 -7.34944 13.2828
head 16.4143 -1.9999 6.16919
rclavicle 3.18055e-015 9.19379e-015
rhumerus -19.0029 36.9909 -31.7442
rradius 39.7619
rwrist 0.996585
rhand 15.5054 25.3053
rfingers 7.12502
rthumb 40.3271 0.178794
lclavicle 3.18055e-015 9.19379e-015
lhumerus -15.8692 -30.1404 23.7767
lradius 27.8721
lwrist 17.1216
lhand -16.9146 -22.8897
lfingers 7.12502
lthumb 9.31775 6.88443
rfemur -0.579427 -38.1216 -1.60392
rtibia 48.0674
rfoot -2.62908 -19.1728
rtoes 0.411574
lfemur -17.2068 17.1581 -2.07341
ltibia 74.9416
lfoot 3.48549 -0.113382
ltoes 2.33882
114
root -4.94317 1.60178 -1.4294 -21.1815 81.6955 80.5946
lowerback 18.722 0.774822 3.21849
upperback 3.61874 2.2839 4.90204
thorax -6.66515 1.2186 2.87499
lowerneck -20.1439 -4.05801 -9.35156
upperneck 33.9053 -7.00445 12.8204
head 16.4233 -1.91597 6.0563
rclavicle 3.26007e-014 3.2228e-014
rhumerus -18.6769 37.8669 -31.47
rradius 40.004
rwrist 0.625436
rhand 15.4518 25.04
rfingers 7.12502
rthumb 40.2768 -0.10193
lclavicle 3.26007e-014 3.2228e-014
lhumerus -16.3934 -29.7132 24.1009
lradius 27.9492
lwrist 16.5499
lhand -16.8974 -23.0571
lfingers 7.12502
lthumb 9.33432 6.71619
rfemur -0.681746 -38.0292 -1.385
rtibia 48.0169
rfoot -2.64503 -19.3221
rtoes 0.936332
lfemur -17.2739 17.2143 -1.96513
ltibia 74.9974
lfoot 3.43109 -0.17178
ltoes 2.60828
115
root -4.94665 1.60365 -1.4282 -21.8624 81.6986 79.8871
lowerback 18.728 0.853367 3.60898
upperback 3.6392 2.44397 4.67691
thorax -6.62448 1.28555 2.37078
lowerneck -20.0068 -4.20721 -9.07526
upperneck 34.0454 -7.42778 12.9894
head 16.5346 -2.01791 6.01758
rclavicle -1.35174e-014 -7.65321e-015
rhumerus -19.398 37.1984 -32.1544
rradius 40.1764
rwrist 0.809963
rhand 15.8272 24.8539
rfingers 7.12502
rthumb 40.6297 -0.179052
lclavicle -1.35174e-014 -7.65321e-015
lhumerus -15.4812 -30.1129 23.4754
lradius 28.1176
lwrist 16.8404
lhand -16.6912 -23.1237
lfingers 7.12502
lthumb 9.53328 6.64065
rfemur -0.593891 -38.1542 -1.34034
rtibia 47.9189
rfoot -2.67016 -19.2884
rtoes 0.762767
lfemur -17.3701 17.2107 -1.84672
ltibia 75.0713
lfoot 3.39753 -0.206206
ltoes 2.46074
116
root -4.95605 1.60621 -1.42668 -22.4862 81.6995 79.2512
lowerback 18.7068 0.835934 3.70031
upperback 3.65526 2.43878 4.69082
thorax -6.59261 1.28248 2.33551
lowerneck -19.7345 -4.23956 -9.24525
upperneck 34.2165 -7.50807 13.1714
head 16.5906 -2.04364 6.13737
rclavicle -5.64548e-014 7.82466e-014
rhumerus -19.5296 36.9565 -32.2931
rradius 40.402
rwrist 0.989082
rhand 16.2391 24.9071
rfingers 7.12502
rthumb 41.0167 -0.00401424
lclavicle -5.64548e-014 7.82466e-014
lhumerus -15.2913 -30.4822 23.3872
lradius 28.2367
lwrist 17.4068
lhand -16.4981 -23.0947
lfingers 7.12502
lthumb 9.71961 6.66107
rfemur -0.456151 -38.2642 -1.30548
rtibia 47.7751
rfoot -2.60785 -19.2708
rtoes 0.329873
lfemur -17.4902 17.1915 -1.74322
ltibia 75.1525
lfoot 3.43714 -0.244434
ltoes 2.00435
117
root -4.96435 1.60809 -1.42603 -22.9736 81.6704 78.7526
lowerback 18.6572 0.782986 3.62473
upperback 3.69209 2.36213 4.82438
thorax -6.53384 1.25076 2.54163
lowerneck -19.5257 -4.25328 -9.52645
upperneck 34.5247 -7.48646 13.2489
head 16.7139 -2.05507 6.26345
rclavicle -9.14409e-014 5.21313e-014
rhumerus -19.2596 37.3176 -32.0837
rradius 40.5869
rwrist 0.784015
rhand 16.3152 25.1674
rfingers 7.12502
rthumb 41.0882 0.279118
lclavicle -9.14409e-014 5.21313e-014
lhumerus -15.4979 -30.56 23.601
lradius 28.2885
lwrist 17.6353
lhand -16.7042 -23.0793
lfingers 7.12502
lthumb 9.52076 6.6856
rfemur -0.375356 -38.2244 -1.19302
rtibia 47.621
rfoot -2.57278 -19.3037
rtoes 0.588273
lfemur -17.5361 17.175 -1.65632
ltibia 75.1969
lfoot 3.382 -0.287519
ltoes 2.20624
118
root -4.97159 1.61045 -1.42699 -23.4092 81.6286 78.266
lowerback 18.5685 0.78436 3.67028
upperback 3.67088 2.37048 4.86863
thorax -6.50951 1.2543 2.56265
lowerneck -19.1828 -4.33196 -9.666
upperneck 34.6858 -7.61591 13.3157
head 16.7479 -2.11591 6.31226
rclavicle 6.04305e-014 -6.0356e-014
rhumerus -19.3041 37.4809 -32.1426
rradius 40.655
rwrist 0.693652
rhand 16.4216 25.3824
rfingers 7.12502
rthumb 41.1881 0.526105
lclavicle 6.04305e-014 -6.0356e-014
lhumerus -15.4203 -30.3986 23.6277
lradius 28.3449
lwrist 17.4328
lhand -16.7786 -22.9421
lfingers 7.12502
lthumb 9.44897 6.82611
rfemur -0.358446 -38.235 -1.07324
rtibia 47.4961
rfoot -2.52226 -19.2741
rtoes 0.845224
lfemur -17.5602 17.1496 -1.60282
ltibia 75.2035
lfoot 3.37948 -0.275235
ltoes 3.04184
